<svg width="20" height="20" viewBox="0 0 20 20" fill="none" xmlns="http://www.w3.org/2000/svg">
<g clip-path="url(#clip0_1002_1758)">
<path d="M14.5425 5.56667C14.9675 5.14501 14.9675 4.45834 14.5425 4.03584L12.9817 2.47501L12.9842 2.47667L10.8558 0.351674C10.6265 0.129278 10.3189 0.00581104 9.99946 0.00783705C9.67997 0.00986305 9.37405 0.13722 9.14751 0.362507L0.35584 9.15001C0.24339 9.26176 0.15415 9.39466 0.0932535 9.54103C0.0323572 9.68741 0.00100708 9.84438 0.00100708 10.0029C0.00100708 10.1615 0.0323572 10.3184 0.0932535 10.4648C0.15415 10.6112 0.24339 10.7441 0.35584 10.8558L9.14667 19.6392C9.37326 19.8656 9.68049 19.9928 10.0008 19.9928C10.3212 19.9928 10.6284 19.8656 10.855 19.6392L14.5408 15.9558C14.6417 15.8554 14.7217 15.7361 14.7763 15.6046C14.8309 15.4732 14.859 15.3323 14.859 15.19C14.859 15.0477 14.8309 14.9068 14.7763 14.7754C14.7217 14.6439 14.6417 14.5246 14.5408 14.4242C14.3371 14.2216 14.0615 14.108 13.7742 14.108C13.4869 14.108 13.2113 14.2216 13.0075 14.4242L10.2158 17.2192C10.189 17.2467 10.1569 17.2685 10.1215 17.2834C10.0861 17.2983 10.048 17.306 10.0096 17.306C9.97116 17.306 9.93311 17.2983 9.8977 17.2834C9.86228 17.2685 9.8302 17.2467 9.80334 17.2192L2.78084 10.2033C2.75335 10.1765 2.73151 10.1444 2.71659 10.109C2.70168 10.0736 2.69399 10.0355 2.69399 9.99709C2.69399 9.95866 2.70168 9.92062 2.71659 9.8852C2.73151 9.84978 2.75335 9.8177 2.78084 9.79084L9.80084 2.77417C9.80917 2.76584 9.82084 2.75917 9.83001 2.75001C9.88536 2.70526 9.95553 2.68299 10.0266 2.68762C10.0976 2.69226 10.1643 2.72345 10.2133 2.77501L13.0083 5.56667C13.109 5.66759 13.2285 5.74765 13.3602 5.80228C13.4918 5.85691 13.6329 5.88503 13.7754 5.88503C13.9179 5.88503 14.0591 5.85691 14.1907 5.80228C14.3223 5.74765 14.4419 5.66759 14.5425 5.56667ZM7.67167 10.0467C7.67167 10.6758 7.92176 11.2791 8.36693 11.724C8.81209 12.1688 9.41587 12.4188 10.0454 12.4188C10.675 12.4188 11.2788 12.1688 11.7239 11.724C12.1691 11.2791 12.4192 10.6758 12.4192 10.0467C12.4192 9.41756 12.1691 8.81421 11.7239 8.36936C11.2788 7.92451 10.675 7.67459 10.0454 7.67459C9.41587 7.67459 8.81209 7.92451 8.36693 8.36936C7.92176 8.81421 7.67167 9.41756 7.67167 10.0467ZM19.645 9.18501L16.9 6.45251C16.6961 6.24964 16.42 6.13597 16.1324 6.13644C15.8448 6.13691 15.5691 6.25148 15.3658 6.45501C15.265 6.55543 15.185 6.67478 15.1304 6.8062C15.0758 6.93762 15.0477 7.07853 15.0477 7.22084C15.0477 7.36315 15.0758 7.50406 15.1304 7.63548C15.185 7.7669 15.265 7.88625 15.3658 7.98667L17.2192 9.83834C17.3358 9.95417 17.3358 10.135 17.2192 10.2508L15.3925 12.0758C15.2918 12.1762 15.2119 12.2955 15.1574 12.4269C15.1028 12.5582 15.0748 12.699 15.0748 12.8413C15.0748 12.9835 15.1028 13.1243 15.1574 13.2556C15.2119 13.387 15.2918 13.5063 15.3925 13.6067C15.5963 13.8092 15.8719 13.9229 16.1592 13.9229C16.4465 13.9229 16.7221 13.8092 16.9258 13.6067L19.6458 10.89C19.758 10.778 19.8469 10.645 19.9075 10.4986C19.9682 10.3522 19.9993 10.1952 19.9991 10.0367C19.999 9.87827 19.9676 9.72138 19.9066 9.57508C19.8457 9.42877 19.7565 9.29593 19.6442 9.18417L19.645 9.18501Z" fill="white"/>
</g>
<defs>
<clipPath id="clip0_1002_1758">
<rect width="20" height="20" fill="white"/>
</clipPath>
</defs>
</svg>
