<svg width="20" height="20" viewBox="0 0 20 20" fill="none" xmlns="http://www.w3.org/2000/svg">
<g clip-path="url(#clip0_1002_1770)">
<path fill-rule="evenodd" clip-rule="evenodd" d="M12.6433 0H9.16332V4.94333C8.66799 4.82383 8.15946 4.76783 7.64999 4.77667C4.01332 4.77583 1.66666 6.92083 1.66666 10.2275C1.66666 13.6592 3.87916 15.4467 8.12916 15.4508C9.54832 15.4508 10.8608 15.3258 12.6433 15.0092V0ZM8.11166 7.48083C8.54166 7.48083 8.87832 7.5225 9.28499 7.6475V12.8542C8.78832 12.9167 8.47499 12.9375 8.08999 12.9375C6.30666 12.9375 5.33582 11.9858 5.33582 10.2625C5.33582 8.49167 6.35249 7.48083 8.11166 7.48083Z" fill="white"/>
<path d="M18.3333 12.6942V5.17917H14.8583V11.575C14.8583 14.3975 14.7017 15.47 14.2042 16.3967C13.7292 17.3025 12.9858 17.8967 11.45 18.5683L14.6792 20C16.215 19.2817 16.9583 18.6308 17.5225 17.6C18.1275 16.5267 18.3333 15.2817 18.3333 12.6942ZM17.9867 0H14.5083V3.3275H17.9875L17.9867 0Z" fill="white"/>
</g>
<defs>
<clipPath id="clip0_1002_1770">
<rect width="20" height="20" fill="white"/>
</clipPath>
</defs>
</svg>
