<svg width="20" height="20" viewBox="0 0 20 20" fill="none" xmlns="http://www.w3.org/2000/svg">
<path d="M2.16666 8.825L6.98333 4L8.39166 5.41666C8.19166 6.125 8.51666 6.9 9.16666 7.275V11.8917C8.66666 12.175 8.33333 12.7167 8.33333 13.3333C8.33333 13.7754 8.50892 14.1993 8.82149 14.5118C9.13405 14.8244 9.55797 15 10 15C10.442 15 10.8659 14.8244 11.1785 14.5118C11.4911 14.1993 11.6667 13.7754 11.6667 13.3333C11.6667 12.7167 11.3333 12.175 10.8333 11.8917V7.84166L12.5583 9.58333C12.5 9.70833 12.5 9.85 12.5 10C12.5 10.442 12.6756 10.8659 12.9882 11.1785C13.3007 11.4911 13.7246 11.6667 14.1667 11.6667C14.6087 11.6667 15.0326 11.4911 15.3452 11.1785C15.6577 10.8659 15.8333 10.442 15.8333 10C15.8333 9.55797 15.6577 9.13405 15.3452 8.82149C15.0326 8.50892 14.6087 8.33333 14.1667 8.33333C14.0167 8.33333 13.875 8.33333 13.75 8.39166L11.6083 6.25C11.7118 5.86403 11.6717 5.45362 11.4954 5.09499C11.3192 4.73636 11.0188 4.45388 10.65 4.3C10.2917 4.16666 9.91666 4.13333 9.58333 4.225L8.16666 2.81666L8.825 2.16666C9.475 1.50833 10.525 1.50833 11.175 2.16666L17.8333 8.825C18.4917 9.475 18.4917 10.525 17.8333 11.175L11.175 17.8333C10.525 18.4917 9.475 18.4917 8.825 17.8333L2.16666 11.175C1.50833 10.525 1.50833 9.475 2.16666 8.825Z" fill="white"/>
</svg>
